<!DOCTYPE svg PUBLIC "-//W3C//DTD SVG 1.1//EN" "http://www.w3.org/Graphics/SVG/1.1/DTD/svg11.dtd">
<!-- Uploaded to: SVG Repo, www.svgrepo.com, Transformed by: SVG Repo Mixer Tools -->
<svg height="800px" width="800px" version="1.1" id="_x32_" xmlns="http://www.w3.org/2000/svg" xmlns:xlink="http://www.w3.org/1999/xlink" viewBox="-51.2 -51.2 614.40 614.40" xml:space="preserve" fill="#000000" transform="rotate(-45)" stroke="#000000" stroke-width="0.00512">
<g id="SVGRepo_bgCarrier" stroke-width="0"/>
<g id="SVGRepo_tracerCarrier" stroke-linecap="round" stroke-linejoin="round" stroke="#CCCCCC" stroke-width="1.024"/>
<g id="SVGRepo_iconCarrier"> <style type="text/css"> .st0{fill:#F6B17A;} </style> <g> <path class="st0" d="M286.105,88.898c-100.217,0.008-181.43,81.222-181.438,181.438c0.008,100.225,81.222,181.438,181.438,181.446 c100.225-0.008,181.439-81.222,181.446-181.446C467.544,170.119,386.33,88.906,286.105,88.898z M179.43,163.661 c10.19-10.181,21.832-18.91,34.562-25.85c-6.736,10.316-12.612,21.932-17.518,34.646h-25.04 C174.01,169.444,176.627,166.463,179.43,163.661z M153.741,197.944h34.714c-4.795,18.48-7.623,38.589-8.501,59.644h-44.06 C137.7,236.103,143.897,215.901,153.741,197.944z M153.757,342.736c-9.86-17.966-16.057-38.168-17.864-59.661h43.883 c0.877,21.106,3.849,41.164,8.661,59.661H153.757z M179.43,377.01c-2.802-2.802-5.419-5.774-7.986-8.788h25.04 c3.554,9.219,7.581,17.888,12.089,25.875c1.748,3.072,3.614,5.951,5.496,8.814C201.295,395.963,189.645,387.225,179.43,377.01z M273.366,420.555c-1.266-0.101-2.542-0.16-3.808-0.304c-4.153-1.706-8.282-3.96-12.393-7.024 c-12.333-9.16-24.043-24.752-33.109-45.005h49.31V420.555z M273.366,342.736h-58.445c-5.26-18-8.518-38.184-9.481-59.661h67.926 V342.736z M273.366,257.588h-68.112c0.963-21.468,4.34-41.644,9.582-59.644h58.53V257.588z M273.366,172.458h-49.243 c2.094-4.677,4.28-9.176,6.644-13.339c7.801-13.837,16.944-24.617,26.398-31.674c4.112-3.057,8.24-5.302,12.385-7.008 c1.266-0.143,2.55-0.202,3.816-0.312V172.458z M418.478,197.944c9.844,17.957,16.04,38.159,17.846,59.644h-43.89 c-0.878-21.097-3.85-41.146-8.662-59.644H418.478z M392.788,163.661c2.803,2.802,5.42,5.783,7.995,8.797h-25.056 c-3.546-9.219-7.582-17.889-12.098-25.884c-1.739-3.064-3.613-5.943-5.479-8.814C370.906,144.716,382.565,153.454,392.788,163.661z M298.844,120.125c1.266,0.11,2.549,0.169,3.816,0.312c4.136,1.706,8.274,3.951,12.384,7.008 c12.343,9.159,24.044,24.769,33.119,45.013h-49.319V120.125z M298.844,197.944h58.453c5.252,17.999,8.51,38.184,9.472,59.644 h-67.925V197.944z M341.451,381.552c-7.809,13.837-16.952,24.626-26.407,31.675c-4.11,3.064-8.248,5.318-12.393,7.024 c-1.266,0.144-2.541,0.202-3.807,0.304v-52.333h49.252C345.993,372.89,343.816,377.399,341.451,381.552z M298.844,342.736v-59.661 h68.111c-0.962,21.477-4.339,41.662-9.582,59.661H298.844z M392.788,377.01c-10.19,10.198-21.831,18.919-34.562,25.85 c6.728-10.307,12.604-21.924,17.509-34.638h25.038C398.208,371.236,395.591,374.208,392.788,377.01z M418.46,342.736h-34.705 c4.803-18.472,7.623-38.581,8.501-59.661h44.068C434.518,304.568,428.322,324.77,418.46,342.736z"/> <path class="st0" d="M401.652,459.001c-36.09,22.101-75.928,32.604-115.328,32.604c-74.477-0.008-147.146-37.567-188.884-105.721 c-22.102-36.09-32.604-75.929-32.604-115.329c0.009-74.485,37.568-147.129,105.73-188.884L159.92,64.288 C85.503,109.868,44.432,189.274,44.449,270.555c-0.009,43.022,11.506,86.626,35.608,125.974 C125.628,470.93,205.043,512.009,286.324,512c43.021,0,86.625-11.506,125.982-35.608l-10.654-17.382V459.001z"/> <path class="st0" d="M244.587,69.818h95.387c9.818,0,17.787-3.317,17.787-13.152c0-9.819-18.8-19.333-28.618-19.333h-19.704 l-40.1-36.099c-2.009-2.22-9.97-0.768-12.384-0.759c-2.98,0.017-2.33,4.778-1.182,7.547l11.718,29.311h-28.062l-15.39-24.448 c-2.702-2.946-6.932-3.942-10.654-2.499c-3.732,1.444-6.188,5.032-6.188,9.025l-0.253,17.922v5.293 C206.943,57.644,224.993,69.818,244.587,69.818z"/> </g> </g>
</svg>